<svg xmlns="http://www.w3.org/2000/svg" height="1920" width="3413.333"><defs><clipPath id="c"><path d="M0 1440h2560V0H0z"/></clipPath><clipPath id="d"><path d="M1095.65 1010.43h80.94V727.301h-80.94z"/></clipPath><clipPath id="f"><path d="M1175.399 783.687c.435-9.56.762-18.795 1.195-27.595-6.736-5.432-13.797-10.213-21.403-14.342-11.841-6.518-24.771-11.516-38.459-14.449-1.414 4.78-2.934 9.452-4.348 14.449-.326 1.087-.651 2.065-.868 3.151-1.739 6.302-3.476 12.821-4.781 19.557-2.499 10.212-4.019 20.859-5.541 31.833a301.971 301.971 0 0 0-1.955 14.232c-1.195 9.018-1.955 18.144-2.499 27.596a165.718 165.718 0 0 0-.652 10.539c-.327 6.627-.434 13.472-.434 20.317 0 3.041 0 6.084.107 9.125.109 9.778.544 19.339 1.305 28.683.544 8.039 1.304 15.862 2.391 23.575a349.713 349.713 0 0 0 2.28 15.863c1.522 9.343 3.043 18.361 4.998 27.161 1.305 6.736 3.042 13.255 4.456 19.665.216.978.434 1.955.651 2.933 1.739 4.998 3.259 9.778 4.89 14.45a141.572 141.572 0 0 0 38.351-14.341 142.471 142.471 0 0 0 21.511-14.341c-.433-8.8-.868-17.927-1.195-27.487-.544-14.558-.977-29.769-1.195-45.632a2366.768 2366.768 0 0 1-.326-39.654c0-11.952.109-23.685.218-35.202a3248.52 3248.52 0 0 1 1.303-50.086"/></clipPath><linearGradient id="a" gradientTransform="matrix(80.94012 0 0 -80.94012 1095.654 868.865)" gradientUnits="userSpaceOnUse" x2="1"><stop offset="0" stop-opacity="0" stop-color="#fff"/><stop offset=".644" stop-opacity="0" stop-color="#fff"/><stop offset="1" stop-color="#fff"/></linearGradient><mask id="e" height="1" width="1" y="0" x="0" maskUnits="userSpaceOnUse"><path d="M-32768 32767h65535v-65535h-65535z" fill="url(#a)"/></mask><linearGradient id="g" gradientTransform="matrix(80.94012 0 0 -80.94012 1095.654 868.865)" gradientUnits="userSpaceOnUse" x2="1"><stop offset="0"/><stop offset=".644"/><stop offset="1" stop-color="#1a1a1a"/></linearGradient><clipPath id="h"><path d="M1615.06 1016.75h85.18V726.672h-85.18z"/></clipPath><clipPath id="j"><path d="M1700.241 868.671c0-4.563 0-9.235-.108-13.906-.109-14.885-.652-29.335-1.522-43.567a533.425 533.425 0 0 0-1.303-19.231 414.178 414.178 0 0 0-1.63-16.731c-.652-7.605-1.629-14.884-2.608-22.163 0-.652-.108-1.304-.216-1.956a740.935 740.935 0 0 0-3.26-24.445h-74.096c2.173 29.443 3.585 64.318 4.237 102.56v2.391c.218 12.169.327 24.663.327 37.265 0 11.951-.109 23.685-.218 35.201 0 2.499-.109 4.998-.217 7.497-.652 37.048-2.064 70.945-4.129 99.627-.108 1.848-.326 3.694-.435 5.541h73.77c1.413-8.8 2.5-17.709 3.586-26.835.435-3.586.761-7.062 1.195-10.647a660.13 660.13 0 0 0 2.282-21.621c.326-3.042.652-6.084.869-9.234.977-10.647 1.63-21.621 2.173-32.703.434-5.323.652-10.647.76-16.079.435-10.104.543-20.534.543-30.964"/></clipPath><linearGradient id="b" gradientTransform="matrix(85.1781 0 0 -85.1781 1615.064 871.713)" gradientUnits="userSpaceOnUse" x2="1"><stop offset="0" stop-color="#fff"/><stop offset=".504" stop-opacity="0" stop-color="#fff"/><stop offset=".869" stop-opacity="0" stop-color="#fff"/><stop offset=".953" stop-opacity="0" stop-color="#fff"/><stop offset="1" stop-opacity="0" stop-color="#fff"/></linearGradient><mask id="i" height="1" width="1" y="0" x="0" maskUnits="userSpaceOnUse"><path d="M-32768 32767h65535v-65535h-65535z" fill="url(#b)"/></mask><linearGradient id="k" gradientTransform="matrix(85.1781 0 0 -85.1781 1615.064 871.713)" gradientUnits="userSpaceOnUse" x2="1"><stop offset="0" stop-color="#1a1a1a"/><stop offset=".504"/><stop offset=".869"/><stop offset=".953"/><stop offset="1"/></linearGradient></defs><g clip-path="url(#c)" transform="matrix(1.33333 0 0 -1.33333 0 1920)"><path d="M1251.996 1165.373c8.146 4.28 16.706 8.007 25.266 11.322-6.214-6.352-2.21-11.46 3.866-13.532 6.49-2.07-2.762-6.35 7.455-8.422 10.217-2.07 14.36-3.313 11.46-5.937-2.346-2.07-35.76 6.904-48.047 16.57" fill="#5b94d8"/><path d="M1727.922 915.328c-8.56-.275-27.061-.552-29.271 6.49-3.04 8.974-12.98 12.288-33.136 8.974-20.158-3.175-12.29 4.833-19.193 7.732-7.04 2.9-14.634 1.52-14.634 1.52s20.572 36.311-50.396 21.4c0 0-28.304 8.975-37.557-8.837-9.387-17.673-5.382-20.157-31.616-27.476-26.233-7.179-6.352-23.057-6.352-23.057s8.424-5.523-1.656-11.46c-10.08-5.937-14.498-23.057-9.802-33.55 4.692-10.495 18.5-34.104 28.303-38.522 9.803-4.557 38.245-8.008 44.184-.829 5.936 7.18 11.044 8.284 18.638.966 7.456-7.179 32.723-2.899 29.823-9.802-2.761-7.042-16.017-22.368-5.8-41.007 10.217-18.64 17.398-33.275 5.387-43.216-11.875-9.94-11.185-22.92-.553-34.38 0 0-8.424-24.024-.691-34.379 7.733-10.355 6.35-24.3 3.59-31.204-2.9-7.042.138-3.175.138-3.175s-.276-1.38-.276-2.762c-58.127-50.533-134.203-81.185-217.184-81.185-182.943 0-331.367 148.425-331.367 331.368 0 56.746 14.359 110.317 39.626 156.985 1.103-.967 2.347-1.656 4.14-2.07 6.629-1.52 10.77-2.21 8.424-14.774-2.486-12.565-6.351-39.074 10.494-42.11 16.844-3.039 8.422 11.182 4.417 17.81-4.003 6.765-6.49 27.475 3.177 22.367 9.803-5.109-4.557-6.075 9.94-33.413 14.635-27.338-7.87-25.267 9.527-45.01 17.535-19.745 27.199.966 32.999-5.938 5.799-7.04.275-11.184 11.735-12.84 11.46-1.657 6.628 3.313 11.737-7.87 5.246-11.184 8.835-33.137 42.524-25.129 0 0 5.663-12.564.138-20.987-5.521-8.422-22.09-7.87-24.024-25.404-1.932-17.536 2.073-24.3 10.079-37.14 8.009-12.84 1.935-20.573 10.908-26.787 8.975-6.213 29.962-9.803 25.82-25.819-4.142-16.016-11.46-45.7-7.594-53.019 3.867-7.317-1.105-7.317-2.348-16.292-1.38-9.112 11.46-18.226 10.494-29.823-1.104-11.598-12.565-22.782-5.11-34.932 7.458-12.15 9.389-7.455 12.703-18.5 3.45-10.909 5.8-15.602 11.737-16.984 5.936-1.519 15.602-2.899 19.054-8.284 3.588-5.523 12.427 4.281 6.488 10.08-5.937 5.797-13.668 3.866-11.46 15.187 2.348 11.321 8.975 14.773-.137 20.296-8.975 5.66-7.457 12.15-3.728 12.288 3.728.14 12.288 3.728 5.108 9.665-7.18 5.938-9.39 7.594-3.866 7.317 5.523-.137 22.506-5.66 37.557 8.837 14.91 14.36 28.44 31.48 28.44 31.48s4.557 9.941 2.9 19.882c-1.657 10.08 6.076 12.703 19.468 11.46 13.393-1.38 11.874 4.97 11.874 4.97s11.736-12.15 15.74 37.142c0 0-.691 8.146 14.499 15.188 15.186 7.041 2.345 24.852-6.352 24.852 0 0-3.314 10.907-10.493 12.564-7.042 1.657-23.335-.276-29.963 4.971-6.628 5.246-15.877 9.664-15.877 9.664s8.146 35.071-26.233 35.071c0 0-5.11 25.404-22.368 24.852-17.258-.69-19.33-2.21-21.816 1.795-2.484 4.142-5.798 20.02-17.948 16.844-12.151-3.176-14.911-18.777-26.787-15.325-11.734 3.59-26.646 2.623-23.195 14.497 3.59 11.736 5.524 25.543-12.84 25.82 0 0-4.695 1.932 3.038 8.145 7.595 6.213 4.143 16.016-.276 15.464-4.42-.69-17.397-9.803-23.61-10.217-6.214-.276-25.96 3.175-15.05 27.476 10.769 24.162 62.822 26.647 66.55 14.36 3.867-12.289-.553-17.122 11.598-18.227 12.15-1.104 8.42 20.297 8.42 20.297l33.139 20.434s3.45 2.623 5.799 6.49c2.484 4.004 42.802 23.472 51.5 37.003 8.697 13.392 11.598 20.986 23.057 15.048 11.46-5.936 16.155-7.178 19.055.415 3.037 7.456 18.086-11.874 24.162-3.452 6.075 8.284 3.314 18.501-9.39 20.296-12.702 1.933 3.866 14.222-1.241 17.397-4.972 3.176-14.636-7.732-19.468-3.313-4.971 4.418 5.384 20.71-11.047 21.262-16.568.553-18.64-.965-23.747-19.329-5.11-18.363-12.29 0-25.267-13.53-13.117-13.532-10.08-5.386-11.322 2.76-1.242 8.285-10.218 14.498-19.33 15.188-9.113.691-5.524 17.397 7.87 20.986 13.393 3.59 29.686 9.804 29.686 9.804s1.516-11.184 11.182-8.284c9.666 2.9 12.842 12.84 12.842 12.84l9.664-1.38s6.627 7.041 8.422 7.455c1.933.276 21.814-3.176 21.814-3.176s11.185.828.553-4.418-17.12 1.243-14.772-8.284c2.347-9.527 3.174-4.142 10.216-10.632 7.042-6.627 18.225-5.109 20.849 3.728 0 0 14.496-5.798 17.672 3.59 3.176 9.39-4.417 12.29-4.417 12.29s-1.242 12.563-14.221 20.571c-12.98 8.008-45.84 14.497-49.015-2.9-3.038-17.397-16.293-6.213-16.293-6.213s8.007 3.728 9.389 13.393c1.38 9.665-24.438 13.945-25.13 5.523-.552-8.56 5.662-12.565-1.38-13.945-6.903-1.52-13.392-3.728-22.09-4.28-8.7-.553-9.664 10.08-9.664 10.08s6.627-.968 16.153 1.242c9.664 2.347 15.188 11.46 4.557 14.772-10.494 3.315.689-8.145-22.784-4.693 0 0-2.898.966-5.521 8.837-1.656 5.246-12.012 8.56-20.987 8.007 34.656 12.427 71.795 19.054 110.594 19.054 100.654 0 190.95-45.012 251.7-115.979-1.93-1.243-4.831-2.348-9.386-2.485-12.29-.69-20.022-15.602-11.461-24.853 8.424-9.25 21.539-4.28 21.125-11.046-.277-6.627-2.623-10.078-12.427-5.522-9.803 4.418-16.154 3.452-18.64-5.385-2.483-8.836-6.627-15.602-13.391-12.15-6.904 3.452-23.196-2.21-15.466-16.845 0 0 3.729-12.84-4.97-9.802-8.837 3.175-31.617 11.321-32.861-10.08-1.24-21.263 17.81-20.986 34.38-17.259 16.569 3.867 24.99 23.611 24.99 23.611s16.568-8.56 23.06 2.208c0 0 6.903-20.158 16.98-22.78 0 0-9.388-1.796-7.73-11.185 1.656-9.527 29.408-4.832 23.47 13.255-6.073 18.088-34.101 15.326-17.395 25.267 16.844 9.803 24.438-18.364 24.715-25.68.138-7.456-6.077-24.992 8.422-18.503 14.358 6.49 11.32 27.891 15.878 16.845 4.556-11.184-4.004-23.472 9.388-24.714 5.524-.553 9.25-1.105 11.875-1.52a274.702 274.702 0 0 0 5.798-30.375" fill="#5b94d8"/><path d="M1450.677 1118.567c-3.176-9.389-17.672-3.59-17.672-3.59-2.624-8.837-13.807-10.355-20.85-3.728-7.041 6.49-7.868 1.105-10.215 10.631-2.348 9.527 4.14 3.04 14.772 8.285 10.632 5.246-.553 4.418-.553 4.418s-19.88 3.452-21.814 3.176c-1.795-.415-8.422-7.456-8.422-7.456l-9.664 1.381s-3.176-9.942-12.842-12.84c-9.666-2.9-11.182 8.284-11.182 8.284s-16.293-6.214-29.686-9.804c-13.393-3.589-16.983-20.296-7.87-20.986 9.112-.69 18.088-6.903 19.33-15.188 1.243-8.146-1.795-16.292 11.322-2.76 12.978 13.53 20.158-4.834 25.267 13.53 5.108 18.363 7.18 19.882 23.747 19.33 16.432-.553 6.076-16.845 11.047-21.264 4.832-4.418 14.496 6.49 19.468 3.314 5.107-3.175-11.461-15.464 1.242-17.397 12.703-1.795 15.464-12.012 9.389-20.296-6.076-8.422-21.125 10.907-24.162 3.452-2.9-7.594-7.594-6.35-19.055-.415-11.46 5.938-14.36-1.657-23.057-15.049-8.698-13.53-49.016-32.999-51.5-37.003-2.348-3.866-5.8-6.489-5.8-6.489l-33.136-20.434s3.728-21.4-8.422-20.297c-12.151 1.105-7.731 5.938-11.598 18.225-3.728 12.29-55.781 9.803-66.55-14.359-10.91-24.3 8.836-27.752 15.05-27.475 6.213.413 19.19 9.527 23.61 10.217 4.419.552 7.87-9.25.276-15.464-7.733-6.213-3.037-8.147-3.037-8.147 18.363-.275 16.43-14.082 12.839-25.819-3.451-11.874 11.46-10.907 23.195-14.497 11.876-3.45 14.637 12.15 26.787 15.326 12.15 3.176 15.464-12.703 17.948-16.844 2.487-4.005 4.558-2.486 21.817-1.795 17.257.552 22.367-24.853 22.367-24.853 34.379 0 26.233-35.07 26.233-35.07s9.249-4.418 15.877-9.664c6.628-5.247 22.92-3.315 29.963-4.97 7.179-1.658 10.493-12.565 10.493-12.565 8.697 0 21.538-17.812 6.352-24.853-15.19-7.04-14.498-15.188-14.498-15.188-4.005-49.29-15.741-37.14-15.741-37.14s1.519-6.35-11.874-4.972c-13.392 1.244-21.125-1.379-19.466-11.46 1.655-9.94-2.901-19.88-2.901-19.88s-13.531-17.12-28.441-31.48c-15.051-14.498-32.033-8.975-37.557-8.838-5.523.277-3.313-1.38 3.866-7.317 7.18-5.938-1.38-9.527-5.108-9.665-3.73-.138-5.247-6.628 3.729-12.288 9.11-5.524 2.484-8.975.137-20.296-2.21-11.32 5.522-9.39 11.459-15.189 5.939-5.797-2.9-15.6-6.488-10.078-3.452 5.385-13.118 6.765-19.054 8.283-5.936 1.382-8.286 6.076-11.737 16.984-3.314 11.046-5.245 6.35-12.702 18.501-7.456 12.15 4.005 23.334 5.109 34.931.966 11.598-11.874 20.711-10.494 29.824 1.243 8.974 6.215 8.974 2.348 16.292-3.866 7.318 3.452 37.003 7.595 53.02 4.14 16.015-16.846 19.605-25.821 25.818-8.973 6.213-2.9 13.945-10.908 26.786-8.006 12.84-12.01 19.605-10.08 37.14 1.936 17.535 18.504 16.983 24.025 25.405 5.525 8.423-.138 20.987-.138 20.987-33.69-8.008-37.278 13.945-42.523 25.128-5.11 11.184-.277 6.214-11.738 7.87-11.46 1.657-5.936 5.8-11.735 12.841-5.8 6.904-15.464-13.807-33 5.937-17.396 19.744 5.109 17.673-9.525 45.011-14.498 27.337-.138 28.304-9.941 33.413-9.665 5.108-7.18-15.602-3.177-22.368 4.005-6.627 12.427-20.848-4.417-17.81-16.844 3.037-12.98 29.546-10.494 42.111 2.346 12.564-1.795 13.254-8.423 14.773-1.794.414-3.038 1.104-4.141 2.071 32.307 60.061 82.703 108.937 143.869 139.451 12.286-9.665 45.7-18.64 48.048-16.569 2.899 2.624-1.244 3.866-11.461 5.937-10.217 2.072-.966 6.352-7.455 8.422-6.076 2.072-10.08 7.18-3.866 13.532a212.935 212.935 0 0 0 12.012 4.556c8.975.552 19.33-2.76 20.987-8.008 2.623-7.87 5.52-8.837 5.52-8.837 23.474-3.45 12.292 8.01 22.785 4.694 10.632-3.313 5.107-12.426-4.557-14.772-9.526-2.21-16.153-1.243-16.153-1.243s.966-10.632 9.664-10.08c8.698.553 15.187 2.761 22.09 4.281 7.043 1.38.828 5.384 1.38 13.945.692 8.422 26.51 4.142 25.13-5.523-1.381-9.665-9.39-13.393-9.39-13.393s13.257-11.184 16.294 6.213c3.175 17.397 36.036 10.908 49.015 2.9s14.22-20.572 14.22-20.572 7.594-2.9 4.418-12.289" fill="#d1e1e5"/><path d="M1373.903 1037.94s-9.13-3.607-4.915-8.52c4.215-4.91 15.67-2.251 4.915 8.52m13.447 16.523s-5.336 1.38-6.203-4.645c-.866-6.026 9.118-9.308 12.224-4.831 3.103 4.473-6.02 9.476-6.02 9.476m14.971-11.38s-4.48-5.506-9.476-6.02c-4.995-.513-11.538 1.044-7.929-8.087 3.608-9.13 11.712.163 11.712.163s17.826 4.204 5.693 13.945m19.123 8.938s-15.755 1.649-8.878-10.41c0 0 4.562-2.502 8.864-6.811 4.302-4.308 15.15-5.868 16.103.762.953 6.628-1.623 14.38-16.089 16.459m309.79-183.085c0-99.824-44.182-189.432-114.184-250.183 0 1.382.277 2.762.277 2.762s-3.037-3.867-.139 3.175c2.761 6.904 4.144 20.849-3.59 31.204-7.732 10.355.692 34.379.692 34.379-10.632 11.46-11.323 24.439.552 34.38 12.011 9.941 4.83 24.576-5.386 43.216-10.217 18.639 3.04 33.965 5.8 41.007 2.9 6.903-22.368 2.623-29.824 9.802-7.594 7.318-12.702 6.214-18.637-.966-5.94-7.179-34.38-3.728-44.184.829-9.804 4.418-23.61 28.027-28.304 38.521-4.695 10.494-.276 27.614 9.803 33.551 10.08 5.937 1.655 11.46 1.655 11.46s-19.88 15.878 6.353 23.057c26.233 7.319 22.228 9.804 31.616 27.476 9.253 17.812 37.557 8.837 37.557 8.837 70.967 14.911 50.395-21.401 50.395-21.401s7.595 1.38 14.635-1.519c6.903-2.899-.966-10.907 19.192-7.732 20.158 3.314 30.098 0 33.137-8.974 2.21-7.042 20.711-6.765 29.271-6.49 2.208-15.187 3.313-30.651 3.313-46.391" fill="#d1e1e5"/><path d="M1722.124 945.704c-2.624.415-6.352.967-11.875 1.52-13.393 1.242-4.832 13.53-9.388 24.714-4.557 11.045-1.52-10.356-15.879-16.845-14.498-6.49-8.283 11.046-8.421 18.502-.277 7.317-7.872 35.484-24.715 25.68-16.706-9.941 11.322-7.18 17.396-25.267 5.937-18.087-21.815-22.781-23.471-13.254-1.658 9.388 7.731 11.184 7.731 11.184-10.078 2.623-16.982 22.78-16.982 22.78-6.491-10.768-23.058-2.208-23.058-2.208s-8.422-19.744-24.991-23.61c-16.569-3.728-35.62-4.004-34.38 17.259 1.244 21.4 24.024 13.254 32.862 10.079 8.697-3.038 4.969 9.802 4.969 9.802-7.731 14.636 8.562 20.297 15.466 16.846 6.764-3.452 10.908 3.313 13.392 12.15 2.485 8.836 8.836 9.802 18.639 5.385 9.804-4.557 12.15-1.105 12.427 5.522.414 6.765-12.701 1.795-21.125 11.045-8.561 9.252-.829 24.163 11.461 24.854 4.555.137 7.456 1.242 9.387 2.485 33.689-39.351 58.404-86.57 70.555-138.623" fill="#d1e1e5"/><path d="M1570.327 1056.458s-13.956-7.221-2.685-18.683c11.271-11.461 14.306 13.937 20.16 11.865 5.853-2.07 5.588-8.183 1.627-10.074-3.963-1.891-11.718-8.774-4.057-11.105 7.662-2.331 26.171-6.223 25.922 4.885-.249 11.108-8.685 12.321-8.685 12.321s-8.43 9.824-2.31 18.171c0 0 .523 7.921-8.69 8.015-9.214.094-8.969-15.318-10.863-15.663-1.895-.34-10.419.268-10.419.268" fill="#d1e1e5"/><path d="M1180.18 705.79c.542-6.846 1.304-13.364 1.955-19.34h-22.163c-.652 5.976-1.414 12.494-2.064 19.34-.543 6.626-1.196 13.58-1.739 20.86-.326 4.888-.653 9.886-.978 15.1-.433 7.28-.868 14.885-1.195 22.708-.544 10.212-.87 20.86-1.196 31.832a2205.807 2205.807 0 0 0-1.194 72.685c0 27.052.435 53.018 1.302 77.246.327 9.343.653 18.361 1.088 27.161.327 7.823.762 15.428 1.086 22.707.543 7.171.978 14.015 1.522 20.642a775.062 775.062 0 0 0 1.846 20.208c.435 5.107.98 9.888 1.522 14.45h22.163c-.542-4.562-1.086-9.343-1.52-14.45-.654-6.3-1.196-13.145-1.739-20.208-.869-10.864-1.63-22.598-2.282-34.983-.434-8.8-.869-17.927-1.195-27.487-.544-14.558-.977-29.769-1.195-45.632a2366.768 2366.768 0 0 1-.326-39.654c0-11.952.11-23.685.218-35.202a3248.52 3248.52 0 0 1 1.303-50.086c.435-9.56.761-18.795 1.195-27.595.543-10.322 1.195-20.208 1.847-29.443.544-7.279 1.087-14.233 1.738-20.86m462.176 163.077c0-26.944-.435-52.693-1.303-76.813v-.434c-.65-23.576-1.847-45.522-3.368-64.97 0-1.846-.217-3.694-.326-5.541a775.371 775.371 0 0 0-1.846-20.207c-.435-5.107-.978-9.887-1.522-14.451h-22.164c.544 4.564 1.087 9.344 1.522 14.45.652 6.3 1.194 13.146 1.737 20.208.11 1.847.327 3.695.435 5.54 2.173 29.444 3.587 64.32 4.237 102.562v2.39c.217 12.169.326 24.662.326 37.266 0 11.95-.109 23.685-.216 35.2 0 2.5-.11 4.999-.217 7.497-.652 37.048-2.066 70.946-4.13 99.628-.107 1.847-.325 3.694-.434 5.54-.434 5.324-.87 10.43-1.302 15.32-.543 6.844-1.305 13.363-1.957 19.338h22.164c.652-5.975 1.414-12.494 2.064-19.338.434-4.89.869-9.996 1.304-15.32.109-1.846.326-3.693.435-5.54 1.302-18.144 2.39-38.351 3.152-60.19 0-3.15.107-6.301.216-9.451.759-22.924 1.194-47.37 1.194-72.684" fill="#5b5b5b"/><path d="M1892 871.713c0-9.887-1.086-19.556-2.933-29.008-4.346-21.404-13.472-41.177-26.075-58.017-2.717-3.585-5.65-7.17-8.691-10.43-26.51-29.117-64.753-47.586-107.342-47.586h-131.461c2.173 29.442 3.585 64.317 4.237 102.56v2.391c.218 12.168.327 24.662.327 37.265 0 11.95-.109 23.684-.218 35.201 0 2.5-.109 4.998-.217 7.497-.652 37.048-2.064 70.945-4.129 99.627-.108 1.847-.326 3.694-.435 5.541h131.896c42.697 0 81.049-18.469 107.559-47.804 3.042-3.259 5.867-6.736 8.474-10.212a143.86 143.86 0 0 0 26.075-58.017c1.847-9.343 2.933-19.013 2.933-29.008" fill="#ebab35"/><path d="M1869.401 871.713c0-70.729-57.364-128.093-128.092-128.093-17.057 0-33.354 3.368-48.239 9.452-20.533 8.366-38.46 21.946-52.04 39.004-9.235 11.734-16.515 25.097-21.295 39.547.218 12.168.326 24.662.326 37.265 0 11.95-.108 23.684-.218 35.201 0 2.5-.108 4.998-.216 7.497a128.239 128.239 0 0 0 21.294 39.438c13.472 17.057 31.181 30.53 51.498 38.895 14.993 6.301 31.616 9.777 48.89 9.777 70.728 0 128.092-57.255 128.092-127.983" fill="#bf8221"/><path d="M1804.278 874.436c9.145-8.426 14.943-20.436 15.01-33.786l.011-2.571c.125-25.417-20.46-46.103-45.889-46.103h-1.125l.065-13.603h-29.605l-.067 13.603h-12.134l.066-13.603h-29.605l-.067 13.603h-21.594l-.144 29.606h14.682l-.172 35.564-.146 29.619-.156 32.028h-14.682l-.144 29.618h21.592l-.08 16.646h29.606l.08-16.646h12.136l-.08 16.646h29.605l.081-16.785c23.243-1.412 41.82-20.699 41.934-44.276l.011-2.434c.05-10.217-3.406-19.607-9.189-27.126m-14.586-36.357l-.013 2.57c-.043 9.105-7.483 16.497-16.586 16.497h-49.778l.175-35.564h49.775c9.104 0 16.472 7.405 16.427 16.497m-66.677 80.714l.156-32.028h45.955c8.161 0 14.775 6.636 14.735 14.797l-.012 2.434c-.04 8.163-6.717 14.797-14.88 14.797h-39.663z" fill="#ebab35"/><path d="M1175.4 783.688c.434-9.561.76-18.795 1.194-27.596-6.736-5.432-13.797-10.212-21.403-14.341-11.842-6.518-24.77-11.516-38.459-14.45-9.998-2.282-20.536-3.478-31.183-3.478H812.85c-15.97 0-29.009 13.038-29.009 29.01 0 8.04 3.26 15.319 8.475 20.534 5.214 5.324 12.494 8.474 20.534 8.474h92.782c8.041 0 15.321 3.26 20.644 8.475 5.215 5.215 8.366 12.602 8.366 20.533a28.935 28.935 0 0 1-29.01 29.009h-46.39c-15.972 0-29.009 13.037-29.009 29.008 0 8.04 3.26 15.319 8.475 20.534 5.214 5.324 12.602 8.474 20.534 8.474h11.624c8.04 0 15.32 3.259 20.534 8.475 5.216 5.214 8.475 12.602 8.475 20.533 0 16.08-13.038 29.009-29.009 29.009H836.1c-16.079 0-29.007 13.037-29.007 29.008a28.98 28.98 0 0 0 8.473 20.534c5.215 5.324 12.495 8.474 20.534 8.474h249.45c10.755 0 21.184-1.195 31.182-3.476a141.58 141.58 0 0 0 38.35-14.342 142.424 142.424 0 0 0 21.512-14.34c-.434-8.801-.869-17.927-1.195-27.488-.544-14.558-.978-29.77-1.195-45.631a2356.25 2356.25 0 0 1-.326-39.655c0-11.952.108-23.684.217-35.201.326-17.384.76-34.224 1.304-50.086M772.265 984.977a29.035 29.035 0 0 0-8.47-20.538 29.033 29.033 0 0 0-20.538-8.47h-46.413c-16.013 0-29.009 12.995-29.009 29.008 0 8.006 3.25 15.316 8.471 20.538a29.029 29.029 0 0 0 20.538 8.47h46.413c16.012 0 29.008-12.995 29.008-29.008" fill="#8ab24e"/><path d="M807.075 868.944a29.03 29.03 0 0 0-8.47-20.537 29.03 29.03 0 0 0-20.538-8.471h-11.603c-16.013 0-29.009 12.995-29.009 29.008a29.031 29.031 0 0 0 8.471 20.538 29.027 29.027 0 0 0 20.538 8.47h11.603c16.012 0 29.008-12.995 29.008-29.008" fill="#8ab24e"/><path d="M1174.096 833.773c.326-17.384.76-34.224 1.304-50.086-6.303-7.17-13.581-13.689-21.403-19.229-12.712-9.018-27.053-15.754-42.481-19.557-10.105-2.716-20.752-4.02-31.616-4.02-70.728 0-127.984 57.256-127.984 127.984s57.256 128.093 127.984 128.093c10.756 0 21.294-1.304 31.29-3.912 15.537-3.802 29.988-10.647 42.807-19.664a127.744 127.744 0 0 0 21.403-19.122c-.544-14.558-.978-29.769-1.196-45.63a2366.888 2366.888 0 0 1-.326-39.656c0-11.95.109-23.684.218-35.2" fill="#67822e"/><path d="M1090.13 879.96c-19.969 6.03-29.144 9.638-28.436 19.023.82 10.845 16.35 12.712 28.507 9.88 15.177-3.535 24.326-12.681 24.326-12.681l7.017 11.132.03-.035 8.53 13.473-4.983 3.003-2.863-4.348c-4.988 4.038-14.406 9.907-28.857 12.103v21.992h-27.409v-21.176s-31.299-6.34-31.299-36.41c0-30.073 29.694-33.886 48.48-39.482 17.4-5.177 17.866-15.799 9.82-22.499-10.578-8.81-39.128.451-47.403 11.073-3.043-5.557-7.362-13.052-9.879-17.387l-5.98-9.995 4.637-3.036 3.761 5.786c5.037-3.724 14.335-9.296 27.863-12.258V784.29h27.41v24.335s27.907 5.492 31.092 32.468c2.622 22.19-12.68 32.32-34.364 38.866" fill="#8ab24e"/><g clip-path="url(#d)"><g mask="url(#e)" clip-path="url(#f)" opacity=".6"><path d="M1175.399 783.687c.435-9.56.762-18.795 1.195-27.595-6.736-5.432-13.797-10.213-21.403-14.342-11.841-6.518-24.771-11.516-38.459-14.449-1.414 4.78-2.934 9.452-4.348 14.449-.326 1.087-.651 2.065-.868 3.151-1.739 6.302-3.476 12.821-4.781 19.557-2.499 10.212-4.019 20.859-5.541 31.833a301.971 301.971 0 0 0-1.955 14.232c-1.195 9.018-1.955 18.144-2.499 27.596a165.718 165.718 0 0 0-.652 10.539c-.327 6.627-.434 13.472-.434 20.317 0 3.041 0 6.084.107 9.125.109 9.778.544 19.339 1.305 28.683.544 8.039 1.304 15.862 2.391 23.575a349.713 349.713 0 0 0 2.28 15.863c1.522 9.343 3.043 18.361 4.998 27.161 1.305 6.736 3.042 13.255 4.456 19.665.216.978.434 1.955.651 2.933 1.739 4.998 3.259 9.778 4.89 14.45a141.572 141.572 0 0 0 38.351-14.341 142.471 142.471 0 0 0 21.511-14.341c-.433-8.8-.868-17.927-1.195-27.487-.544-14.558-.977-29.769-1.195-45.632a2366.768 2366.768 0 0 1-.326-39.654c0-11.952.109-23.685.218-35.202a3248.52 3248.52 0 0 1 1.303-50.086" fill="url(#g)"/></g></g><g clip-path="url(#h)"><g mask="url(#i)" clip-path="url(#j)" opacity=".6"><path d="M1700.241 868.671c0-4.563 0-9.235-.108-13.906-.109-14.885-.652-29.335-1.522-43.567a533.425 533.425 0 0 0-1.303-19.231 414.178 414.178 0 0 0-1.63-16.731c-.652-7.605-1.629-14.884-2.608-22.163 0-.652-.108-1.304-.216-1.956a740.935 740.935 0 0 0-3.26-24.445h-74.096c2.173 29.443 3.585 64.318 4.237 102.56v2.391c.218 12.169.327 24.663.327 37.265 0 11.951-.109 23.685-.218 35.201 0 2.499-.109 4.998-.217 7.497-.652 37.048-2.064 70.945-4.129 99.627-.108 1.848-.326 3.694-.435 5.541h73.77c1.413-8.8 2.5-17.709 3.586-26.835.435-3.586.761-7.062 1.195-10.647a660.13 660.13 0 0 0 2.282-21.621c.326-3.042.652-6.084.869-9.234.977-10.647 1.63-21.621 2.173-32.703.434-5.323.652-10.647.76-16.079.435-10.104.543-20.534.543-30.964" fill="url(#k)"/></g></g><path d="M950.506 269.041c8.106 0 13.83 2.026 17.172 6.08 3.337 4.053 5.012 10.415 5.012 19.09 0 9.811-1.675 16.707-5.012 20.69-3.342 3.98-9.139 5.972-17.384 5.972H942.4v-51.832zm-.638 77.001c8.102 0 13.613 1.845 16.53 5.546 2.911 3.697 4.374 9.456 4.374 17.276 0 6.826-1.853 11.977-5.546 15.466-3.702 3.481-9.105 5.225-16.213 5.225H942.4v-43.513zm-45.648 69.107h45.006c11.231 0 20.8-1.171 28.69-3.518 7.892-2.348 14.254-6.861 19.09-13.544 4.833-6.688 7.25-16.069 7.25-28.155 0-10.238-2.205-18.204-6.609-23.89-4.41-5.688-10.667-9.316-18.773-10.879 9.955-1.28 17.562-5.476 22.826-12.585 5.255-7.112 7.89-16.781 7.89-29.01 0-34.126-17.42-51.189-52.258-51.189H904.22zm180.452-113.474l-9.174 67.402-9.169-67.402zm-31.145 113.475h43.513l32.208-172.771h-35.194l-5.758 36.474h-25.382l-5.97-36.474h-36.05zm139.5-146.109c8.106 0 13.83 2.026 17.172 6.08 3.337 4.053 5.012 10.415 5.012 19.09 0 9.811-1.675 16.707-5.012 20.69-3.341 3.98-9.14 5.972-17.384 5.972h-7.894v-51.832zm-.638 77.001c8.102 0 13.614 1.845 16.53 5.546 2.912 3.697 4.374 9.456 4.374 17.276 0 6.826-1.853 11.977-5.546 15.466-3.701 3.481-9.104 5.225-16.213 5.225h-6.613v-43.513zm-45.648 69.107h45.006c11.23 0 20.8-1.171 28.689-3.518 7.894-2.348 14.255-6.861 19.09-13.544 4.834-6.688 7.25-16.069 7.25-28.155 0-10.238-2.204-18.204-6.608-23.89-4.41-5.688-10.667-9.316-18.773-10.879 9.955-1.28 17.562-5.476 22.826-12.585 5.255-7.112 7.889-16.781 7.889-29.01 0-34.126-17.42-51.189-52.257-51.189h-53.112zm125.418.001h38.179V268.185h39.677v-25.808h-77.856zm151.867-142.802c1.705 3.624 2.561 8.566 2.561 14.824v83.185c0 6.4-.856 11.374-2.56 14.932-1.707 3.555-5.265 5.334-10.668 5.334-5.116 0-8.53-1.814-10.237-5.442-1.705-3.623-2.56-8.566-2.56-14.824v-83.185c0-6.258.781-11.2 2.348-14.824 1.561-3.628 5.047-5.441 10.45-5.441 5.402 0 8.96 1.813 10.666 5.44m-50.552-18.13c-7.968 9.6-11.947 23.78-11.947 42.554v64.204c0 18.769 3.98 32.88 11.947 42.337 7.963 9.456 21.255 14.185 39.885 14.185 18.773 0 32.174-4.764 40.211-14.29 8.027-9.53 12.051-23.606 12.051-42.232V296.77c0-18.773-4.024-32.954-12.05-42.554-8.038-9.598-21.439-14.398-40.212-14.398-18.63 0-31.922 4.8-39.885 14.398" fill="#3a3a3a"/><path d="M1498.363 254.643c-7.89 9.88-11.839 24.137-11.839 42.767v62.285c0 19.05 3.91 33.449 11.735 43.192 7.82 9.737 21.185 14.61 40.097 14.61 18.057 0 30.86-4.338 38.397-13.01 7.533-8.678 11.304-20.977 11.304-36.903v-14.927h-37.329v17.275c0 6.683-.712 11.799-2.13 15.357-1.424 3.555-4.839 5.334-10.242 5.334-5.403 0-8.957-1.887-10.662-5.655-1.706-3.766-2.56-8.995-2.56-15.68v-81.261c0-6.826.884-12.055 2.664-15.68 1.78-3.627 5.298-5.44 10.558-5.44s8.64 1.813 10.133 5.44c1.492 3.625 2.24 8.854 2.24 15.68v18.127h37.328v-14.93c0-16.211-3.77-28.831-11.304-37.861-7.538-9.031-20.34-13.544-38.397-13.544-18.768 0-32.099 4.938-39.993 14.824m170.744 17.705c1.705 3.624 2.561 8.566 2.561 14.824v83.185c0 6.4-.856 11.374-2.56 14.932-1.707 3.555-5.265 5.334-10.668 5.334-5.116 0-8.53-1.814-10.237-5.442-1.705-3.623-2.56-8.566-2.56-14.824v-83.185c0-6.258.78-11.2 2.348-14.824 1.561-3.628 5.047-5.441 10.45-5.441 5.402 0 8.96 1.813 10.666 5.44m-50.552-18.13c-7.968 9.6-11.947 23.78-11.947 42.554v64.204c0 18.769 3.98 32.88 11.947 42.337 7.963 9.456 21.255 14.185 39.885 14.185 18.773 0 32.174-4.764 40.211-14.29 8.027-9.53 12.051-23.606 12.051-42.232V296.77c0-18.773-4.024-32.954-12.05-42.554-8.038-9.598-21.439-14.398-40.212-14.398-18.63 0-31.922 4.8-39.885 14.398" fill="#ebab35"/><path d="M1734.157 415.149h38.18V242.378h-38.18zm63.991.001h26.875l35.41-83.186v83.185H1892V242.38h-25.808l-35.41 89.585v-89.586h-32.634z" fill="#8ab24e"/></g></svg>