<svg viewBox="0 0 32 32" xmlns="http://www.w3.org/2000/svg"><path d="M16 0C7.163 0 0 7.163 0 16c0 8.836 7.163 16 16 16s16-7.164 16-16c0-8.837-7.163-16-16-16z" fill="#333"/><path d="M4.905 13.267l.436 2.236c.111.57.223 1.174.313 1.8h.022c.112-.626.269-1.252.402-1.789l.582-2.247h1.342l.547 2.18c.146.615.291 1.23.403 1.856h.022c.078-.626.19-1.241.313-1.867l.47-2.169h1.666l-1.678 5.467H8.147l-.515-1.924a20.368 20.368 0 0 1-.346-1.699h-.022a12.731 12.731 0 0 1-.358 1.699l-.548 1.923H4.76l-1.588-5.467h1.733zm8.703 0l.436 2.236c.111.57.223 1.174.313 1.8h.022c.112-.626.269-1.252.402-1.789l.582-2.247h1.342l.547 2.18c.146.615.291 1.23.403 1.856h.022c.078-.626.19-1.241.313-1.867l.47-2.169h1.666l-1.678 5.467H16.85l-.514-1.923a20.368 20.368 0 0 1-.346-1.699h-.023a12.731 12.731 0 0 1-.358 1.699l-.548 1.923h-1.598l-1.588-5.467h1.733zm8.702 0l.436 2.236c.111.57.223 1.174.313 1.8h.022c.112-.626.269-1.252.402-1.789l.582-2.247h1.342l.547 2.18c.146.615.291 1.23.403 1.856h.022c.078-.626.19-1.241.313-1.867l.47-2.169h1.666l-1.678 5.467h-1.598l-.514-1.923a20.368 20.368 0 0 1-.346-1.699h-.023a12.731 12.731 0 0 1-.358 1.699l-.548 1.923h-1.598l-1.588-5.467h1.733z" fill="#FFF"/></svg>