<?xml version="1.0" encoding="UTF-8" standalone="no"?>
<svg
   xmlns:dc="http://purl.org/dc/elements/1.1/"
   xmlns:cc="http://creativecommons.org/ns#"
   xmlns:rdf="http://www.w3.org/1999/02/22-rdf-syntax-ns#"
   xmlns:svg="http://www.w3.org/2000/svg"
   xmlns="http://www.w3.org/2000/svg"
   viewBox="0 0 3413.3333 1920"
   height="1920"
   width="3413.3333"
   xml:space="preserve"
   id="svg2"
   version="1.1"><metadata
     id="metadata8"><rdf:RDF><cc:Work
         rdf:about=""><dc:format>image/svg+xml</dc:format><dc:type
           rdf:resource="http://purl.org/dc/dcmitype/StillImage" /></cc:Work></rdf:RDF></metadata><defs
     id="defs6"><clipPath
       id="clipPath18"
       clipPathUnits="userSpaceOnUse"><path
         id="path16"
         d="M 0,1440 H 2560 V 0 H 0 Z" /></clipPath><clipPath
       id="clipPath106"
       clipPathUnits="userSpaceOnUse"><path
         id="path104"
         d="m 1095.65,1010.43 h 80.94 V 727.301 h -80.94 z" /></clipPath><clipPath
       id="clipPath110"
       clipPathUnits="userSpaceOnUse"><path
         id="path108"
         d="m 1175.399,783.687 c 0.435,-9.56 0.762,-18.795 1.195,-27.595 -6.736,-5.432 -13.797,-10.213 -21.403,-14.342 -11.841,-6.518 -24.771,-11.516 -38.459,-14.449 -1.414,4.78 -2.934,9.452 -4.348,14.449 -0.326,1.087 -0.651,2.065 -0.868,3.151 -1.739,6.302 -3.476,12.821 -4.781,19.557 -2.499,10.212 -4.019,20.859 -5.541,31.833 -0.759,4.671 -1.411,9.452 -1.955,14.232 -1.195,9.018 -1.955,18.144 -2.499,27.596 -0.326,3.477 -0.544,6.953 -0.652,10.539 -0.327,6.627 -0.434,13.472 -0.434,20.317 0,3.041 0,6.084 0.107,9.125 0.109,9.778 0.544,19.339 1.305,28.683 0.544,8.039 1.304,15.862 2.391,23.575 0.652,5.433 1.412,10.648 2.28,15.863 1.522,9.343 3.043,18.361 4.998,27.161 1.305,6.736 3.042,13.255 4.456,19.665 0.216,0.978 0.434,1.955 0.651,2.933 1.739,4.998 3.259,9.778 4.89,14.45 13.581,-2.933 26.509,-7.822 38.351,-14.341 7.605,-4.128 14.775,-8.909 21.511,-14.341 -0.433,-8.8 -0.868,-17.927 -1.195,-27.487 -0.544,-14.558 -0.977,-29.769 -1.195,-45.632 -0.217,-12.928 -0.326,-26.183 -0.326,-39.654 0,-11.952 0.109,-23.685 0.218,-35.202 0.326,-17.383 0.759,-34.223 1.303,-50.086" /></clipPath><linearGradient
       id="linearGradient122"
       spreadMethod="pad"
       gradientTransform="matrix(80.940117,0,0,-80.940117,1095.6541,868.8653)"
       gradientUnits="userSpaceOnUse"
       y2="0"
       x2="1"
       y1="0"
       x1="0"><stop
         id="stop116"
         offset="0"
         style="stop-opacity:0;stop-color:#ffffff" /><stop
         id="stop118"
         offset="0.64421801"
         style="stop-opacity:0;stop-color:#ffffff" /><stop
         id="stop120"
         offset="1"
         style="stop-opacity:1;stop-color:#ffffff" /></linearGradient><mask
       id="mask124"
       height="1"
       width="1"
       y="0"
       x="0"
       maskUnits="userSpaceOnUse"><g
         id="g134"><g
           id="g132"><g
             id="g130"><g
               id="g128"><path
                 id="path126"
                 style="fill:url(#linearGradient122);stroke:none"
                 d="M -32768,32767 H 32767 V -32768 H -32768 Z" /></g></g></g></g></mask><linearGradient
       id="linearGradient142"
       spreadMethod="pad"
       gradientTransform="matrix(80.940117,0,0,-80.940117,1095.6541,868.8653)"
       gradientUnits="userSpaceOnUse"
       y2="0"
       x2="1"
       y1="0"
       x1="0"><stop
         id="stop136"
         offset="0"
         style="stop-opacity:1;stop-color:#000000" /><stop
         id="stop138"
         offset="0.64421801"
         style="stop-opacity:1;stop-color:#000000" /><stop
         id="stop140"
         offset="1"
         style="stop-opacity:1;stop-color:#1a1a1a" /></linearGradient><clipPath
       id="clipPath168"
       clipPathUnits="userSpaceOnUse"><path
         id="path166"
         d="m 1615.06,1016.75 h 85.18 V 726.672 h -85.18 z" /></clipPath><clipPath
       id="clipPath172"
       clipPathUnits="userSpaceOnUse"><path
         id="path170"
         d="m 1700.241,868.671 c 0,-4.563 0,-9.235 -0.108,-13.906 -0.109,-14.885 -0.652,-29.335 -1.522,-43.567 -0.326,-6.519 -0.759,-12.929 -1.303,-19.231 -0.434,-5.649 -0.978,-11.19 -1.63,-16.731 -0.652,-7.605 -1.629,-14.884 -2.608,-22.163 0,-0.652 -0.108,-1.304 -0.216,-1.956 -0.978,-8.366 -2.064,-16.514 -3.26,-24.445 h -74.096 c 2.173,29.443 3.585,64.318 4.237,102.56 v 2.391 c 0.218,12.169 0.327,24.663 0.327,37.265 0,11.951 -0.109,23.685 -0.218,35.201 0,2.499 -0.109,4.998 -0.217,7.497 -0.652,37.048 -2.064,70.945 -4.129,99.627 -0.108,1.848 -0.326,3.694 -0.435,5.541 h 73.77 c 1.413,-8.8 2.5,-17.709 3.586,-26.835 0.435,-3.586 0.761,-7.062 1.195,-10.647 0.869,-7.062 1.63,-14.341 2.282,-21.621 0.326,-3.042 0.652,-6.084 0.869,-9.234 0.977,-10.647 1.63,-21.621 2.173,-32.703 0.434,-5.323 0.652,-10.647 0.76,-16.079 0.435,-10.104 0.543,-20.534 0.543,-30.964" /></clipPath><linearGradient
       id="linearGradient188"
       spreadMethod="pad"
       gradientTransform="matrix(85.178101,0,0,-85.178101,1615.0636,871.7132)"
       gradientUnits="userSpaceOnUse"
       y2="0"
       x2="1"
       y1="0"
       x1="0"><stop
         id="stop178"
         offset="0"
         style="stop-opacity:1;stop-color:#ffffff" /><stop
         id="stop180"
         offset="0.50359173"
         style="stop-opacity:0;stop-color:#ffffff" /><stop
         id="stop182"
         offset="0.869295"
         style="stop-opacity:0;stop-color:#ffffff" /><stop
         id="stop184"
         offset="0.95349751"
         style="stop-opacity:0;stop-color:#ffffff" /><stop
         id="stop186"
         offset="1"
         style="stop-opacity:0;stop-color:#ffffff" /></linearGradient><mask
       id="mask190"
       height="1"
       width="1"
       y="0"
       x="0"
       maskUnits="userSpaceOnUse"><g
         id="g200"><g
           id="g198"><g
             id="g196"><g
               id="g194"><path
                 id="path192"
                 style="fill:url(#linearGradient188);stroke:none"
                 d="M -32768,32767 H 32767 V -32768 H -32768 Z" /></g></g></g></g></mask><linearGradient
       id="linearGradient212"
       spreadMethod="pad"
       gradientTransform="matrix(85.178101,0,0,-85.178101,1615.0636,871.7132)"
       gradientUnits="userSpaceOnUse"
       y2="0"
       x2="1"
       y1="0"
       x1="0"><stop
         id="stop202"
         offset="0"
         style="stop-opacity:1;stop-color:#1a1a1a" /><stop
         id="stop204"
         offset="0.50359173"
         style="stop-opacity:1;stop-color:#000000" /><stop
         id="stop206"
         offset="0.869295"
         style="stop-opacity:1;stop-color:#000000" /><stop
         id="stop208"
         offset="0.95349751"
         style="stop-opacity:1;stop-color:#000000" /><stop
         id="stop210"
         offset="1"
         style="stop-opacity:1;stop-color:#000000" /></linearGradient></defs><g
     transform="matrix(1.3333333,0,0,-1.3333333,0,1920)"
     id="g10"><g
       id="g12"><g
         clip-path="url(#clipPath18)"
         id="g14"><g
           transform="translate(1251.9956,1165.3735)"
           id="g20"><path
             id="path22"
             style="fill:#5b94d8;fill-opacity:1;fill-rule:nonzero;stroke:none"
             d="M 0,0 C 8.146,4.28 16.706,8.007 25.266,11.322 19.052,4.97 23.057,-0.138 29.132,-2.21 c 6.49,-2.07 -2.762,-6.351 7.455,-8.422 10.217,-2.071 14.36,-3.313 11.461,-5.937 C 45.701,-18.64 12.287,-9.665 0,0" /></g><g
           transform="translate(1727.9219,915.3281)"
           id="g24"><path
             id="path26"
             style="fill:#5b94d8;fill-opacity:1;fill-rule:nonzero;stroke:none"
             d="m 0,0 c -8.56,-0.275 -27.061,-0.552 -29.271,6.49 -3.039,8.974 -12.979,12.288 -33.136,8.974 -20.158,-3.175 -12.289,4.833 -19.193,7.732 -7.04,2.899 -14.634,1.519 -14.634,1.519 0,0 20.572,36.312 -50.396,21.401 0,0 -28.304,8.975 -37.557,-8.837 -9.387,-17.673 -5.382,-20.157 -31.616,-27.476 -26.233,-7.179 -6.352,-23.057 -6.352,-23.057 0,0 8.424,-5.523 -1.656,-11.46 -10.079,-5.937 -14.498,-23.057 -9.802,-33.551 4.692,-10.494 18.5,-34.103 28.303,-38.521 9.803,-4.557 38.245,-8.008 44.184,-0.829 5.936,7.179 11.044,8.284 18.638,0.966 7.456,-7.179 32.723,-2.899 29.823,-9.802 -2.761,-7.042 -16.017,-22.368 -5.8,-41.007 10.217,-18.64 17.398,-33.275 5.387,-43.216 -11.875,-9.941 -11.185,-22.92 -0.553,-34.38 0,0 -8.424,-24.024 -0.691,-34.379 7.733,-10.355 6.35,-24.3 3.59,-31.204 -2.899,-7.042 0.138,-3.175 0.138,-3.175 0,0 -0.276,-1.38 -0.276,-2.762 -58.127,-50.533 -134.203,-81.185 -217.184,-81.185 -182.943,0 -331.367,148.425 -331.367,331.368 0,56.746 14.359,110.317 39.626,156.985 1.103,-0.967 2.347,-1.656 4.141,-2.071 6.628,-1.519 10.769,-2.209 8.423,-14.773 -2.486,-12.565 -6.351,-39.074 10.494,-42.111 16.844,-3.038 8.422,11.183 4.417,17.811 -4.003,6.765 -6.489,27.475 3.177,22.367 9.803,-5.109 -4.557,-6.075 9.941,-33.413 14.634,-27.338 -7.871,-25.267 9.526,-45.011 17.535,-19.744 27.199,0.967 32.999,-5.937 5.799,-7.041 0.275,-11.184 11.735,-12.84 11.461,-1.657 6.628,3.313 11.737,-7.87 5.246,-11.184 8.835,-33.137 42.524,-25.129 0,0 5.663,-12.564 0.138,-20.987 -5.521,-8.422 -22.089,-7.87 -24.024,-25.404 -1.932,-17.536 2.073,-24.301 10.079,-37.141 8.009,-12.84 1.935,-20.572 10.908,-26.786 8.975,-6.213 29.962,-9.803 25.821,-25.819 -4.143,-16.016 -11.461,-45.701 -7.595,-53.019 3.867,-7.317 -1.105,-7.317 -2.348,-16.292 -1.38,-9.112 11.46,-18.226 10.494,-29.823 -1.104,-11.598 -12.565,-22.782 -5.109,-34.932 7.457,-12.15 9.388,-7.455 12.702,-18.501 3.451,-10.908 5.801,-15.601 11.737,-16.983 5.936,-1.519 15.602,-2.899 19.054,-8.284 3.588,-5.523 12.427,4.281 6.488,10.079 -5.937,5.798 -13.668,3.867 -11.459,15.188 2.347,11.321 8.974,14.773 -0.138,20.296 -8.975,5.66 -7.457,12.15 -3.728,12.288 3.728,0.139 12.288,3.728 5.108,9.665 -7.179,5.938 -9.389,7.594 -3.866,7.317 5.523,-0.137 22.506,-5.66 37.557,8.837 14.91,14.36 28.441,31.48 28.441,31.48 0,0 4.556,9.941 2.9,19.882 -1.658,10.08 6.075,12.703 19.467,11.46 13.393,-1.38 11.874,4.97 11.874,4.97 0,0 11.736,-12.15 15.741,37.142 0,0 -0.692,8.146 14.498,15.188 15.186,7.041 2.345,24.852 -6.352,24.852 0,0 -3.314,10.907 -10.493,12.564 -7.042,1.657 -23.335,-0.276 -29.963,4.971 -6.628,5.246 -15.877,9.664 -15.877,9.664 0,0 8.146,35.071 -26.233,35.071 0,0 -5.11,25.404 -22.368,24.852 -17.258,-0.69 -19.329,-2.21 -21.816,1.795 -2.484,4.142 -5.798,20.02 -17.948,16.844 -12.151,-3.176 -14.911,-18.777 -26.787,-15.325 -11.734,3.589 -26.646,2.623 -23.195,14.497 3.591,11.736 5.524,25.543 -12.839,25.819 0,0 -4.696,1.933 3.037,8.146 7.595,6.213 4.143,16.016 -0.276,15.464 -4.419,-0.69 -17.397,-9.803 -23.61,-10.217 -6.214,-0.276 -25.959,3.175 -15.05,27.476 10.769,24.162 62.822,26.647 66.55,14.359 3.867,-12.288 -0.553,-17.121 11.598,-18.226 12.15,-1.104 8.421,20.297 8.421,20.297 l 33.138,20.434 c 0,0 3.451,2.623 5.799,6.49 2.484,4.004 42.802,23.472 51.5,37.003 8.697,13.392 11.598,20.986 23.057,15.048 11.461,-5.936 16.155,-7.178 19.055,0.415 3.037,7.456 18.086,-11.874 24.162,-3.452 6.075,8.284 3.314,18.501 -9.389,20.296 -12.703,1.933 3.865,14.222 -1.242,17.397 -4.972,3.176 -14.636,-7.732 -19.468,-3.313 -4.971,4.418 5.384,20.71 -11.047,21.262 -16.568,0.553 -18.639,-0.965 -23.747,-19.329 -5.11,-18.363 -12.289,0 -25.267,-13.53 -13.117,-13.532 -10.079,-5.386 -11.322,2.76 -1.242,8.285 -10.218,14.498 -19.329,15.188 -9.114,0.691 -5.525,17.397 7.869,20.986 13.393,3.59 29.686,9.804 29.686,9.804 0,0 1.516,-11.184 11.182,-8.284 9.666,2.899 12.842,12.84 12.842,12.84 l 9.664,-1.381 c 0,0 6.627,7.042 8.422,7.456 1.933,0.276 21.814,-3.176 21.814,-3.176 0,0 11.185,0.828 0.553,-4.418 -10.632,-5.246 -17.12,1.243 -14.772,-8.284 2.347,-9.527 3.174,-4.142 10.216,-10.632 7.042,-6.627 18.225,-5.109 20.849,3.728 0,0 14.496,-5.798 17.672,3.59 3.176,9.389 -4.417,12.289 -4.417,12.289 0,0 -1.242,12.564 -14.221,20.572 -12.979,8.008 -45.84,14.497 -49.015,-2.9 -3.038,-17.397 -16.293,-6.213 -16.293,-6.213 0,0 8.007,3.728 9.389,13.393 1.381,9.665 -24.438,13.945 -25.129,5.523 -0.553,-8.561 5.661,-12.565 -1.381,-13.945 -6.903,-1.52 -13.392,-3.728 -22.09,-4.28 -8.699,-0.553 -9.664,10.079 -9.664,10.079 0,0 6.627,-0.967 16.153,1.243 9.664,2.347 15.188,11.459 4.557,14.772 -10.494,3.315 0.689,-8.145 -22.784,-4.693 0,0 -2.898,0.966 -5.521,8.837 -1.656,5.246 -12.012,8.56 -20.987,8.007 34.656,12.427 71.795,19.054 110.594,19.054 100.654,0 190.951,-45.012 251.701,-115.979 -1.931,-1.243 -4.832,-2.348 -9.387,-2.485 -12.29,-0.691 -20.022,-15.602 -11.461,-24.853 8.424,-9.251 21.539,-4.28 21.125,-11.046 -0.277,-6.627 -2.623,-10.078 -12.427,-5.522 -9.803,4.418 -16.154,3.452 -18.639,-5.385 -2.484,-8.836 -6.628,-15.602 -13.392,-12.15 -6.904,3.452 -23.196,-2.21 -15.466,-16.845 0,0 3.729,-12.84 -4.969,-9.802 -8.838,3.175 -31.618,11.321 -32.862,-10.08 -1.24,-21.263 17.811,-20.986 34.38,-17.259 16.569,3.867 24.991,23.611 24.991,23.611 0,0 16.567,-8.561 23.059,2.208 0,0 6.903,-20.158 16.981,-22.781 0,0 -9.389,-1.795 -7.73,-11.184 1.655,-9.527 29.407,-4.832 23.47,13.255 -6.074,18.088 -34.102,15.326 -17.396,25.267 16.844,9.803 24.438,-18.364 24.715,-25.681 0.138,-7.455 -6.077,-24.991 8.422,-18.502 14.358,6.49 11.321,27.891 15.878,16.845 4.556,-11.184 -4.004,-23.472 9.388,-24.714 5.524,-0.553 9.251,-1.105 11.875,-1.52 C -3.313,20.435 -1.382,10.355 0,0" /></g><g
           transform="translate(1450.6768,1118.5674)"
           id="g28"><path
             id="path30"
             style="fill:#d1e1e5;fill-opacity:1;fill-rule:nonzero;stroke:none"
             d="m 0,0 c -3.176,-9.389 -17.672,-3.59 -17.672,-3.59 -2.624,-8.837 -13.807,-10.355 -20.849,-3.728 -7.042,6.49 -7.869,1.105 -10.216,10.631 -2.348,9.527 4.14,3.039 14.772,8.285 10.632,5.246 -0.553,4.418 -0.553,4.418 0,0 -19.88,3.452 -21.814,3.176 -1.795,-0.415 -8.422,-7.456 -8.422,-7.456 l -9.664,1.381 c 0,0 -3.176,-9.942 -12.842,-12.841 -9.666,-2.9 -11.182,8.285 -11.182,8.285 0,0 -16.293,-6.214 -29.686,-9.804 -13.393,-3.589 -16.983,-20.296 -7.869,-20.986 9.111,-0.69 18.087,-6.903 19.329,-15.188 1.243,-8.146 -1.795,-16.292 11.322,-2.761 12.978,13.531 20.158,-4.833 25.267,13.531 5.108,18.363 7.18,19.882 23.747,19.329 16.432,-0.552 6.076,-16.844 11.047,-21.263 4.832,-4.418 14.496,6.49 19.468,3.314 5.107,-3.175 -11.461,-15.464 1.242,-17.397 12.703,-1.795 15.464,-12.012 9.389,-20.296 -6.076,-8.422 -21.125,10.907 -24.162,3.452 -2.9,-7.594 -7.594,-6.351 -19.055,-0.415 -11.459,5.938 -14.36,-1.657 -23.057,-15.049 -8.698,-13.53 -49.016,-32.999 -51.5,-37.003 -2.348,-3.866 -5.799,-6.489 -5.799,-6.489 l -33.137,-20.434 c 0,0 3.728,-21.401 -8.422,-20.297 -12.151,1.105 -7.731,5.938 -11.598,18.225 -3.728,12.289 -55.781,9.803 -66.55,-14.359 -10.909,-24.3 8.836,-27.752 15.05,-27.475 6.213,0.413 19.191,9.527 23.61,10.217 4.419,0.552 7.871,-9.251 0.276,-15.464 -7.733,-6.213 -3.037,-8.147 -3.037,-8.147 18.363,-0.275 16.43,-14.082 12.839,-25.819 -3.451,-11.874 11.461,-10.907 23.195,-14.497 11.876,-3.451 14.637,12.15 26.787,15.326 12.15,3.176 15.464,-12.703 17.948,-16.844 2.487,-4.005 4.558,-2.486 21.817,-1.795 17.257,0.552 22.367,-24.853 22.367,-24.853 34.379,0 26.233,-35.07 26.233,-35.07 0,0 9.249,-4.418 15.877,-9.664 6.628,-5.247 22.921,-3.315 29.963,-4.971 7.179,-1.657 10.493,-12.564 10.493,-12.564 8.697,0 21.538,-17.812 6.352,-24.853 -15.19,-7.041 -14.498,-15.188 -14.498,-15.188 -4.005,-49.291 -15.741,-37.141 -15.741,-37.141 0,0 1.519,-6.35 -11.874,-4.971 -13.392,1.244 -21.125,-1.379 -19.466,-11.46 1.655,-9.94 -2.901,-19.881 -2.901,-19.881 0,0 -13.531,-17.12 -28.441,-31.48 -15.051,-14.497 -32.033,-8.974 -37.557,-8.837 -5.523,0.277 -3.313,-1.38 3.866,-7.317 7.18,-5.938 -1.379,-9.527 -5.108,-9.665 -3.729,-0.138 -5.247,-6.628 3.729,-12.288 9.111,-5.524 2.484,-8.975 0.137,-20.296 -2.209,-11.321 5.522,-9.39 11.459,-15.189 5.939,-5.797 -2.9,-15.601 -6.488,-10.078 -3.452,5.385 -13.118,6.765 -19.054,8.283 -5.936,1.382 -8.286,6.076 -11.737,16.984 -3.314,11.046 -5.245,6.35 -12.702,18.501 -7.456,12.15 4.005,23.334 5.109,34.931 0.966,11.598 -11.874,20.711 -10.494,29.824 1.243,8.974 6.215,8.974 2.348,16.292 -3.866,7.318 3.452,37.003 7.595,53.019 4.141,16.016 -16.846,19.606 -25.821,25.819 -8.973,6.213 -2.899,13.945 -10.908,26.786 -8.006,12.84 -12.01,19.605 -10.079,37.14 1.935,17.535 18.503,16.983 24.024,25.405 5.525,8.423 -0.138,20.987 -0.138,20.987 -33.689,-8.008 -37.278,13.945 -42.523,25.128 -5.11,11.184 -0.277,6.214 -11.738,7.87 -11.46,1.657 -5.936,5.799 -11.735,12.841 -5.8,6.904 -15.464,-13.807 -32.999,5.937 -17.397,19.744 5.108,17.673 -9.526,45.011 -14.498,27.337 -0.138,28.304 -9.941,33.413 -9.665,5.108 -7.18,-15.602 -3.177,-22.368 4.005,-6.627 12.427,-20.848 -4.417,-17.811 -16.844,3.038 -12.98,29.547 -10.494,42.112 2.346,12.564 -1.795,13.254 -8.423,14.773 -1.794,0.414 -3.038,1.104 -4.141,2.071 32.307,60.061 82.703,108.937 143.869,139.451 12.286,-9.665 45.701,-18.64 48.048,-16.569 2.899,2.624 -1.244,3.866 -11.461,5.937 -10.217,2.072 -0.966,6.352 -7.455,8.422 -6.076,2.072 -10.08,7.18 -3.866,13.532 4.003,1.657 8.008,3.175 12.012,4.556 8.975,0.552 19.331,-2.761 20.987,-8.008 2.623,-7.87 5.521,-8.837 5.521,-8.837 23.473,-3.451 12.291,8.009 22.784,4.694 10.632,-3.313 5.107,-12.426 -4.557,-14.772 -9.526,-2.21 -16.153,-1.243 -16.153,-1.243 0,0 0.966,-10.632 9.664,-10.08 8.698,0.553 15.187,2.761 22.091,4.281 7.042,1.38 0.827,5.384 1.38,13.945 0.691,8.422 26.51,4.142 25.129,-5.523 -1.381,-9.665 -9.389,-13.393 -9.389,-13.393 0,0 13.256,-11.184 16.293,6.213 3.175,17.397 36.036,10.908 49.015,2.9 12.979,-8.008 14.221,-20.572 14.221,-20.572 0,0 7.593,-2.9 4.417,-12.289" /></g><g
           transform="translate(1373.9033,1037.9409)"
           id="g32"><path
             id="path34"
             style="fill:#d1e1e5;fill-opacity:1;fill-rule:nonzero;stroke:none"
             d="M 0,0 C 0,0 -9.131,-3.608 -4.915,-8.52 -0.7,-13.431 10.754,-10.772 0,0" /></g><g
           transform="translate(1387.3506,1054.4629)"
           id="g36"><path
             id="path38"
             style="fill:#d1e1e5;fill-opacity:1;fill-rule:nonzero;stroke:none"
             d="M 0,0 C 0,0 -5.337,1.381 -6.204,-4.645 -7.07,-10.671 2.914,-13.953 6.02,-9.476 9.123,-5.003 0,0 0,0" /></g><g
           transform="translate(1402.3223,1043.0835)"
           id="g40"><path
             id="path42"
             style="fill:#d1e1e5;fill-opacity:1;fill-rule:nonzero;stroke:none"
             d="m 0,0 c 0,0 -4.481,-5.506 -9.476,-6.02 -4.995,-0.513 -11.538,1.044 -7.929,-8.087 3.608,-9.13 11.712,0.163 11.712,0.163 0,0 17.826,4.203 5.693,13.944" /></g><g
           transform="translate(1421.4453,1052.022)"
           id="g44"><path
             id="path46"
             style="fill:#d1e1e5;fill-opacity:1;fill-rule:nonzero;stroke:none"
             d="m 0,0 c 0,0 -15.755,1.649 -8.878,-10.41 0,0 4.562,-2.502 8.864,-6.811 4.302,-4.308 15.15,-5.868 16.103,0.762 C 17.042,-9.831 14.466,-2.079 0,0" /></g><g
           transform="translate(1731.2354,868.937)"
           id="g48"><path
             id="path50"
             style="fill:#d1e1e5;fill-opacity:1;fill-rule:nonzero;stroke:none"
             d="m 0,0 c 0,-99.824 -44.182,-189.432 -114.184,-250.183 0,1.382 0.277,2.762 0.277,2.762 0,0 -3.037,-3.867 -0.139,3.175 2.761,6.904 4.144,20.849 -3.59,31.204 -7.732,10.355 0.692,34.379 0.692,34.379 -10.632,11.46 -11.323,24.439 0.552,34.38 12.011,9.941 4.83,24.576 -5.386,43.216 -10.217,18.639 3.039,33.965 5.799,41.007 2.901,6.903 -22.367,2.623 -29.823,9.802 -7.594,7.318 -12.702,6.214 -18.637,-0.966 -5.94,-7.179 -34.381,-3.728 -44.184,0.829 -9.804,4.418 -23.611,28.027 -28.304,38.521 -4.695,10.494 -0.276,27.614 9.803,33.551 10.079,5.937 1.655,11.46 1.655,11.46 0,0 -19.881,15.878 6.353,23.057 26.233,7.319 22.228,9.804 31.616,27.476 9.253,17.812 37.557,8.837 37.557,8.837 70.967,14.911 50.395,-21.401 50.395,-21.401 0,0 7.595,1.38 14.635,-1.519 6.903,-2.899 -0.966,-10.907 19.192,-7.732 20.158,3.314 30.098,0 33.137,-8.974 2.21,-7.042 20.711,-6.765 29.271,-6.49 C -1.105,31.204 0,15.74 0,0" /></g><g
           transform="translate(1722.124,945.7036)"
           id="g52"><path
             id="path54"
             style="fill:#d1e1e5;fill-opacity:1;fill-rule:nonzero;stroke:none"
             d="m 0,0 c -2.624,0.415 -6.352,0.967 -11.875,1.52 -13.393,1.242 -4.832,13.53 -9.388,24.714 -4.557,11.045 -1.52,-10.356 -15.879,-16.845 -14.498,-6.489 -8.283,11.046 -8.421,18.502 -0.277,7.317 -7.872,35.484 -24.715,25.68 -16.706,-9.941 11.322,-7.179 17.396,-25.267 5.937,-18.087 -21.815,-22.781 -23.471,-13.254 -1.658,9.388 7.731,11.184 7.731,11.184 -10.078,2.623 -16.982,22.781 -16.982,22.781 -6.491,-10.769 -23.058,-2.209 -23.058,-2.209 0,0 -8.422,-19.744 -24.991,-23.61 -16.569,-3.728 -35.62,-4.004 -34.38,17.259 1.244,21.401 24.024,13.254 32.862,10.079 8.697,-3.038 4.969,9.802 4.969,9.802 -7.731,14.636 8.562,20.297 15.466,16.846 6.764,-3.452 10.908,3.313 13.392,12.15 2.485,8.836 8.836,9.802 18.639,5.385 9.804,-4.557 12.15,-1.105 12.427,5.522 0.414,6.765 -12.701,1.795 -21.125,11.045 -8.561,9.252 -0.829,24.163 11.461,24.854 4.555,0.137 7.456,1.242 9.387,2.485 C -36.866,99.272 -12.151,52.053 0,0" /></g><g
           transform="translate(1570.3271,1056.458)"
           id="g56"><path
             id="path58"
             style="fill:#d1e1e5;fill-opacity:1;fill-rule:nonzero;stroke:none"
             d="m 0,0 c 0,0 -13.956,-7.221 -2.685,-18.683 11.271,-11.461 14.306,13.937 20.159,11.865 5.854,-2.07 5.589,-8.183 1.628,-10.074 -3.963,-1.891 -11.718,-8.774 -4.057,-11.105 7.662,-2.331 26.171,-6.223 25.922,4.885 -0.249,11.108 -8.685,12.321 -8.685,12.321 0,0 -8.43,9.824 -2.31,18.171 0,0 0.523,7.921 -8.69,8.015 C 12.068,15.489 12.313,0.077 10.419,-0.268 8.524,-0.608 0,0 0,0" /></g><g
           transform="translate(1180.1792,705.7891)"
           id="g60"><path
             id="path62"
             style="fill:#5b5b5b;fill-opacity:1;fill-rule:nonzero;stroke:none"
             d="m 0,0 c 0.543,-6.845 1.305,-13.363 1.956,-19.339 h -22.163 c -0.652,5.976 -1.414,12.494 -2.064,19.339 -0.543,6.627 -1.196,13.581 -1.739,20.86 -0.326,4.889 -0.653,9.887 -0.978,15.101 -0.433,7.28 -0.868,14.885 -1.195,22.708 -0.544,10.212 -0.87,20.859 -1.196,31.832 -0.759,22.925 -1.194,47.37 -1.194,72.685 0,27.052 0.435,53.018 1.302,77.246 0.327,9.343 0.653,18.361 1.088,27.161 0.327,7.823 0.762,15.428 1.086,22.707 0.543,7.171 0.978,14.015 1.522,20.642 0.543,7.063 1.195,13.908 1.846,20.208 0.435,5.107 0.979,9.888 1.522,14.45 H 1.956 c -0.542,-4.562 -1.086,-9.343 -1.521,-14.45 -0.653,-6.3 -1.195,-13.145 -1.738,-20.208 -0.869,-10.864 -1.631,-22.598 -2.282,-34.983 -0.434,-8.8 -0.869,-17.927 -1.195,-27.487 -0.544,-14.558 -0.977,-29.769 -1.195,-45.632 -0.217,-12.928 -0.326,-26.183 -0.326,-39.654 0,-11.952 0.109,-23.685 0.218,-35.202 0.326,-17.383 0.759,-34.223 1.303,-50.086 0.435,-9.56 0.761,-18.795 1.195,-27.595 C -3.042,39.981 -2.39,30.095 -1.738,20.86 -1.194,13.581 -0.651,6.627 0,0" /></g><g
           transform="translate(1642.3555,868.8657)"
           id="g64"><path
             id="path66"
             style="fill:#5b5b5b;fill-opacity:1;fill-rule:nonzero;stroke:none"
             d="m 0,0 c 0,-26.944 -0.435,-52.693 -1.303,-76.813 v -0.434 c -0.651,-23.576 -1.847,-45.522 -3.368,-64.97 0,-1.846 -0.217,-3.694 -0.326,-5.541 -0.544,-7.062 -1.194,-13.907 -1.846,-20.207 -0.435,-5.107 -0.978,-9.887 -1.522,-14.451 h -22.164 c 0.544,4.564 1.087,9.344 1.522,14.451 0.652,6.3 1.194,13.145 1.737,20.207 0.109,1.847 0.327,3.695 0.435,5.541 2.173,29.443 3.587,64.319 4.237,102.561 v 2.391 c 0.217,12.168 0.326,24.661 0.326,37.265 0,11.951 -0.109,23.685 -0.216,35.201 0,2.499 -0.11,4.998 -0.218,7.496 -0.651,37.048 -2.065,70.946 -4.129,99.628 -0.108,1.847 -0.326,3.694 -0.435,5.541 -0.434,5.323 -0.869,10.43 -1.302,15.319 -0.543,6.844 -1.305,13.363 -1.957,19.338 h 22.164 c 0.652,-5.975 1.414,-12.494 2.064,-19.338 0.434,-4.889 0.869,-9.996 1.304,-15.319 0.109,-1.847 0.326,-3.694 0.435,-5.541 1.302,-18.144 2.39,-38.351 3.152,-60.189 0,-3.151 0.107,-6.302 0.216,-9.452 C -0.435,49.76 0,25.314 0,0" /></g><g
           transform="translate(1892,871.7134)"
           id="g68"><path
             id="path70"
             style="fill:#ebab35;fill-opacity:1;fill-rule:nonzero;stroke:none"
             d="m 0,0 c 0,-9.887 -1.086,-19.556 -2.933,-29.008 -4.346,-21.404 -13.472,-41.177 -26.075,-58.017 -2.717,-3.585 -5.65,-7.17 -8.691,-10.43 -26.51,-29.117 -64.753,-47.586 -107.342,-47.586 h -131.461 c 2.173,29.442 3.585,64.317 4.237,102.56 v 2.391 c 0.218,12.168 0.327,24.662 0.327,37.265 0,11.95 -0.109,23.684 -0.218,35.201 0,2.499 -0.109,4.998 -0.217,7.497 -0.652,37.048 -2.064,70.945 -4.129,99.627 -0.108,1.847 -0.326,3.694 -0.435,5.541 h 131.896 c 42.697,0 81.049,-18.469 107.559,-47.804 3.042,-3.259 5.867,-6.736 8.474,-10.212 C -16.405,70.293 -7.279,50.52 -2.933,29.008 -1.086,19.665 0,9.995 0,0" /></g><g
           transform="translate(1869.4014,871.7134)"
           id="g72"><path
             id="path74"
             style="fill:#bf8221;fill-opacity:1;fill-rule:nonzero;stroke:none"
             d="m 0,0 c 0,-70.729 -57.364,-128.093 -128.092,-128.093 -17.057,0 -33.354,3.368 -48.239,9.452 -20.533,8.366 -38.46,21.946 -52.04,39.004 -9.235,11.734 -16.515,25.097 -21.295,39.547 0.218,12.168 0.326,24.662 0.326,37.265 0,11.95 -0.108,23.684 -0.218,35.201 0,2.499 -0.108,4.998 -0.216,7.497 4.78,14.449 12.059,27.813 21.294,39.438 13.472,17.057 31.181,30.529 51.498,38.895 14.993,6.301 31.616,9.777 48.89,9.777 C -57.364,127.983 0,70.728 0,0" /></g><g
           transform="translate(1804.2783,874.4355)"
           id="g76"><path
             id="path78"
             style="fill:#ebab35;fill-opacity:1;fill-rule:nonzero;stroke:none"
             d="m 0,0 c 9.145,-8.426 14.943,-20.436 15.009,-33.786 l 0.012,-2.571 C 15.146,-61.774 -5.44,-82.46 -30.868,-82.46 h -1.125 l 0.065,-13.603 H -61.533 L -61.6,-82.46 h -12.134 l 0.066,-13.603 h -29.605 l -0.067,13.603 h -6.911 -14.683 l -0.144,29.606 h 14.682 l -0.172,35.564 -0.146,29.619 -0.156,32.028 h -14.682 l -0.144,29.618 h 14.681 6.911 l -0.08,16.646 h 29.606 l 0.08,-16.646 h 12.136 l -0.081,16.646 h 29.606 l 0.081,-16.785 C -9.513,72.425 9.063,53.138 9.178,29.56 L 9.189,27.126 C 9.239,16.909 5.783,7.519 0,0 m -14.586,-36.357 -0.013,2.571 c -0.043,9.104 -7.483,16.496 -16.586,16.496 h -3.825 -45.953 l 0.175,-35.564 h 6.29 43.485 c 9.104,0 16.472,7.405 16.427,16.497 m -66.677,80.714 0.156,-32.028 h 45.955 c 8.161,0 14.775,6.636 14.735,14.797 l -0.012,2.434 c -0.04,8.163 -6.717,14.797 -14.881,14.797 h -39.662 z" /></g><g
           transform="translate(1175.3994,783.6875)"
           id="g80"><path
             id="path82"
             style="fill:#8ab24e;fill-opacity:1;fill-rule:nonzero;stroke:none"
             d="m 0,0 c 0.435,-9.561 0.761,-18.795 1.195,-27.596 -6.736,-5.432 -13.797,-10.212 -21.403,-14.341 -11.842,-6.518 -24.771,-11.516 -38.459,-14.45 -9.998,-2.281 -20.536,-3.477 -31.183,-3.477 h -272.699 c -15.971,0 -29.009,13.038 -29.009,29.009 0,8.04 3.26,15.319 8.475,20.534 5.214,5.324 12.494,8.474 20.534,8.474 h 92.782 c 8.041,0 15.321,3.26 20.644,8.475 5.215,5.215 8.366,12.602 8.366,20.533 0,16.08 -12.93,29.009 -29.01,29.009 h -46.39 c -15.972,0 -29.009,13.037 -29.009,29.008 0,8.04 3.26,15.319 8.475,20.534 5.214,5.324 12.602,8.474 20.534,8.474 h 11.624 c 8.04,0 15.32,3.259 20.534,8.475 5.216,5.214 8.475,12.602 8.475,20.533 0,16.08 -13.038,29.009 -29.009,29.009 h -34.766 c -16.079,0 -29.007,13.037 -29.007,29.008 0,8.04 3.258,15.319 8.473,20.534 5.215,5.324 12.495,8.474 20.534,8.474 H -89.85 c 10.756,0 21.185,-1.195 31.183,-3.476 13.58,-2.933 26.508,-7.823 38.35,-14.342 7.606,-4.128 14.776,-8.908 21.512,-14.34 C 0.761,189.26 0.326,180.134 0,170.573 -0.544,156.015 -0.978,140.804 -1.195,124.942 -1.413,112.013 -1.521,98.759 -1.521,85.287 -1.521,73.335 -1.413,61.603 -1.304,50.086 -0.978,32.702 -0.544,15.862 0,0" /></g><g
           transform="translate(772.2651,984.9771)"
           id="g84"><path
             id="path86"
             style="fill:#8ab24e;fill-opacity:1;fill-rule:nonzero;stroke:none"
             d="m 0,0 c 0,-8.006 -3.249,-15.316 -8.47,-20.538 -5.221,-5.221 -12.532,-8.47 -20.538,-8.47 h -46.413 c -16.013,0 -29.009,12.995 -29.009,29.008 0,8.006 3.25,15.316 8.471,20.538 5.221,5.222 12.532,8.47 20.538,8.47 h 46.413 C -12.996,29.008 0,16.013 0,0" /></g><g
           transform="translate(807.0752,868.9438)"
           id="g88"><path
             id="path90"
             style="fill:#8ab24e;fill-opacity:1;fill-rule:nonzero;stroke:none"
             d="m 0,0 c 0,-8.006 -3.249,-15.316 -8.47,-20.537 -5.221,-5.222 -12.532,-8.471 -20.538,-8.471 h -11.603 c -16.013,0 -29.009,12.995 -29.009,29.008 0,8.006 3.249,15.316 8.471,20.538 5.22,5.222 12.532,8.47 20.538,8.47 h 11.603 C -12.996,29.008 0,16.013 0,0" /></g><g
           transform="translate(1174.0957,833.7734)"
           id="g92"><path
             id="path94"
             style="fill:#67822e;fill-opacity:1;fill-rule:nonzero;stroke:none"
             d="m 0,0 c 0.326,-17.384 0.76,-34.224 1.304,-50.086 -6.303,-7.17 -13.581,-13.689 -21.403,-19.229 -12.712,-9.018 -27.053,-15.754 -42.481,-19.557 -10.105,-2.716 -20.752,-4.02 -31.616,-4.02 -70.728,0 -127.984,57.256 -127.984,127.984 0,70.728 57.256,128.093 127.984,128.093 10.756,0 21.294,-1.304 31.291,-3.912 15.536,-3.802 29.987,-10.647 42.806,-19.664 7.822,-5.541 14.993,-11.951 21.403,-19.122 C 0.76,105.929 0.326,90.718 0.108,74.856 -0.109,61.927 -0.218,48.673 -0.218,35.201 -0.218,23.25 -0.109,11.517 0,0" /></g><g
           transform="translate(1090.1304,879.9595)"
           id="g96"><path
             id="path98"
             style="fill:#8ab24e;fill-opacity:1;fill-rule:nonzero;stroke:none"
             d="m 0,0 c -19.969,6.03 -29.144,9.638 -28.436,19.023 0.82,10.845 16.349,12.712 28.507,9.88 15.177,-3.535 24.326,-12.681 24.326,-12.681 l 7.017,11.132 0.03,-0.035 8.529,13.473 -4.982,3.003 -2.863,-4.348 C 27.14,43.485 17.722,49.354 3.271,51.55 V 73.542 H -24.138 V 52.366 c 0,0 -31.299,-6.339 -31.299,-36.41 0,-30.072 29.694,-33.885 48.479,-39.481 17.4,-5.177 17.867,-15.799 9.821,-22.499 -10.578,-8.81 -39.128,0.451 -47.403,11.073 -3.043,-5.557 -7.362,-13.052 -9.879,-17.387 l -5.981,-9.995 4.638,-3.036 3.761,5.786 c 5.037,-3.724 14.335,-9.296 27.863,-12.258 V -95.669 H 3.271 v 24.335 c 0,0 27.908,5.492 31.093,32.468 C 36.986,-16.676 21.683,-6.546 0,0" /></g><g
           id="g100"><g
             id="g102" /><g
             id="g160"><g
               style="opacity:0.60000598"
               id="g158"
               clip-path="url(#clipPath106)"><g
                 id="g156"><g
                   id="g154"
                   clip-path="url(#clipPath110)"><g
                     id="g152"><g
                       id="g144" /><g
                       id="g150"
                       mask="url(#mask124)"><g
                         id="g148"><path
                           id="path146"
                           style="fill:url(#linearGradient142);stroke:none"
                           d="m 1175.399,783.687 c 0.435,-9.56 0.762,-18.795 1.195,-27.595 -6.736,-5.432 -13.797,-10.213 -21.403,-14.342 -11.841,-6.518 -24.771,-11.516 -38.459,-14.449 -1.414,4.78 -2.934,9.452 -4.348,14.449 -0.326,1.087 -0.651,2.065 -0.868,3.151 -1.739,6.302 -3.476,12.821 -4.781,19.557 -2.499,10.212 -4.019,20.859 -5.541,31.833 -0.759,4.671 -1.411,9.452 -1.955,14.232 -1.195,9.018 -1.955,18.144 -2.499,27.596 -0.326,3.477 -0.544,6.953 -0.652,10.539 -0.327,6.627 -0.434,13.472 -0.434,20.317 0,3.041 0,6.084 0.107,9.125 0.109,9.778 0.544,19.339 1.305,28.683 0.544,8.039 1.304,15.862 2.391,23.575 0.652,5.433 1.412,10.648 2.28,15.863 1.522,9.343 3.043,18.361 4.998,27.161 1.305,6.736 3.042,13.255 4.456,19.665 0.216,0.978 0.434,1.955 0.651,2.933 1.739,4.998 3.259,9.778 4.89,14.45 13.581,-2.933 26.509,-7.822 38.351,-14.341 7.605,-4.128 14.775,-8.909 21.511,-14.341 -0.433,-8.8 -0.868,-17.927 -1.195,-27.487 -0.544,-14.558 -0.977,-29.769 -1.195,-45.632 -0.217,-12.928 -0.326,-26.183 -0.326,-39.654 0,-11.952 0.109,-23.685 0.218,-35.202 0.326,-17.383 0.759,-34.223 1.303,-50.086" /></g></g></g></g></g></g></g></g><g
           id="g162"><g
             id="g164" /><g
             id="g230"><g
               style="opacity:0.60000598"
               id="g228"
               clip-path="url(#clipPath168)"><g
                 id="g226"><g
                   id="g224"
                   clip-path="url(#clipPath172)"><g
                     id="g222"><g
                       id="g214" /><g
                       id="g220"
                       mask="url(#mask190)"><g
                         id="g218"><path
                           id="path216"
                           style="fill:url(#linearGradient212);stroke:none"
                           d="m 1700.241,868.671 c 0,-4.563 0,-9.235 -0.108,-13.906 -0.109,-14.885 -0.652,-29.335 -1.522,-43.567 -0.326,-6.519 -0.759,-12.929 -1.303,-19.231 -0.434,-5.649 -0.978,-11.19 -1.63,-16.731 -0.652,-7.605 -1.629,-14.884 -2.608,-22.163 0,-0.652 -0.108,-1.304 -0.216,-1.956 -0.978,-8.366 -2.064,-16.514 -3.26,-24.445 h -74.096 c 2.173,29.443 3.585,64.318 4.237,102.56 v 2.391 c 0.218,12.169 0.327,24.663 0.327,37.265 0,11.951 -0.109,23.685 -0.218,35.201 0,2.499 -0.109,4.998 -0.217,7.497 -0.652,37.048 -2.064,70.945 -4.129,99.627 -0.108,1.848 -0.326,3.694 -0.435,5.541 h 73.77 c 1.413,-8.8 2.5,-17.709 3.586,-26.835 0.435,-3.586 0.761,-7.062 1.195,-10.647 0.869,-7.062 1.63,-14.341 2.282,-21.621 0.326,-3.042 0.652,-6.084 0.869,-9.234 0.977,-10.647 1.63,-21.621 2.173,-32.703 0.434,-5.323 0.652,-10.647 0.76,-16.079 0.435,-10.104 0.543,-20.534 0.543,-30.964" /></g></g></g></g></g></g></g></g><g
           transform="translate(950.5063,269.041)"
           id="g232"><path
             id="path234"
             style="fill:#3a3a3a;fill-opacity:1;fill-rule:nonzero;stroke:none"
             d="m 0,0 c 8.106,0 13.83,2.026 17.172,6.08 3.337,4.053 5.012,10.415 5.012,19.09 0,9.811 -1.675,16.707 -5.012,20.69 -3.342,3.98 -9.139,5.972 -17.384,5.972 H -8.106 V 0 Z m -0.638,77.001 c 8.102,0 13.613,1.845 16.53,5.546 2.911,3.697 4.374,9.456 4.374,17.276 0,6.826 -1.853,11.977 -5.546,15.466 -3.702,3.481 -9.105,5.225 -16.213,5.225 H -8.106 V 77.001 Z m -45.648,69.107 H -1.28 c 11.231,0 20.8,-1.171 28.689,-3.518 7.893,-2.348 14.255,-6.861 19.09,-13.544 4.834,-6.688 7.251,-16.069 7.251,-28.155 0,-10.238 -2.205,-18.204 -6.609,-23.89 -4.41,-5.688 -10.667,-9.316 -18.773,-10.879 9.955,-1.28 17.562,-5.476 22.826,-12.585 5.255,-7.112 7.889,-16.781 7.889,-29.01 0,-34.126 -17.419,-51.189 -52.257,-51.189 h -53.112 z" /></g><g
           transform="translate(1084.6724,301.6748)"
           id="g236"><path
             id="path238"
             style="fill:#3a3a3a;fill-opacity:1;fill-rule:nonzero;stroke:none"
             d="M 0,0 -9.174,67.402 -18.343,0 Z M -31.145,113.475 H 12.368 L 44.576,-59.296 H 9.382 l -5.758,36.474 h -25.382 l -5.971,-36.474 h -36.049 z" /></g><g
           transform="translate(1193.0269,269.041)"
           id="g240"><path
             id="path242"
             style="fill:#3a3a3a;fill-opacity:1;fill-rule:nonzero;stroke:none"
             d="m 0,0 c 8.106,0 13.831,2.026 17.172,6.08 3.337,4.053 5.012,10.415 5.012,19.09 0,9.811 -1.675,16.707 -5.012,20.69 -3.341,3.98 -9.139,5.972 -17.384,5.972 H -8.106 V 0 Z m -0.638,77.001 c 8.102,0 13.614,1.845 16.53,5.546 2.912,3.697 4.374,9.456 4.374,17.276 0,6.826 -1.853,11.977 -5.546,15.466 -3.701,3.481 -9.104,5.225 -16.213,5.225 H -8.106 V 77.001 Z m -45.648,69.107 H -1.28 c 11.231,0 20.8,-1.171 28.689,-3.518 7.894,-2.348 14.255,-6.861 19.09,-13.544 4.834,-6.688 7.251,-16.069 7.251,-28.155 0,-10.238 -2.205,-18.204 -6.609,-23.89 -4.409,-5.688 -10.667,-9.316 -18.773,-10.879 9.955,-1.28 17.562,-5.476 22.826,-12.585 5.255,-7.112 7.889,-16.781 7.889,-29.01 0,-34.126 -17.419,-51.189 -52.257,-51.189 h -53.112 z" /></g><g
           transform="translate(1272.1587,415.1494)"
           id="g244"><path
             id="path246"
             style="fill:#3a3a3a;fill-opacity:1;fill-rule:nonzero;stroke:none"
             d="m 0,0 h 38.179 v -146.963 h 39.677 v -25.808 H 0 Z" /></g><g
           transform="translate(1424.0264,272.3477)"
           id="g248"><path
             id="path250"
             style="fill:#3a3a3a;fill-opacity:1;fill-rule:nonzero;stroke:none"
             d="m 0,0 c 1.705,3.624 2.561,8.566 2.561,14.824 v 83.185 c 0,6.401 -0.856,11.374 -2.561,14.932 -1.706,3.555 -5.264,5.334 -10.667,5.334 -5.116,0 -8.531,-1.814 -10.237,-5.442 -1.705,-3.623 -2.56,-8.566 -2.56,-14.824 V 14.824 c 0,-6.258 0.781,-11.2 2.348,-14.824 1.561,-3.628 5.047,-5.441 10.449,-5.441 5.403,0 8.961,1.813 10.667,5.441 m -50.552,-18.131 c -7.968,9.6 -11.947,23.781 -11.947,42.554 v 64.204 c 0,18.769 3.979,32.881 11.947,42.337 7.963,9.456 21.255,14.185 39.885,14.185 18.773,0 32.174,-4.764 40.211,-14.29 8.027,-9.529 12.051,-23.606 12.051,-42.232 V 24.423 c 0,-18.773 -4.024,-32.954 -12.051,-42.554 -8.037,-9.598 -21.438,-14.398 -40.211,-14.398 -18.63,0 -31.922,4.8 -39.885,14.398" /></g><g
           transform="translate(1498.3633,254.6426)"
           id="g252"><path
             id="path254"
             style="fill:#ebab35;fill-opacity:1;fill-rule:nonzero;stroke:none"
             d="m 0,0 c -7.89,9.881 -11.839,24.137 -11.839,42.767 v 62.285 c 0,19.051 3.91,33.449 11.735,43.192 7.819,9.737 21.185,14.61 40.097,14.61 18.057,0 30.859,-4.338 38.397,-13.009 7.533,-8.679 11.304,-20.978 11.304,-36.904 V 98.014 H 52.365 v 17.275 c 0,6.683 -0.712,11.799 -2.131,15.357 -1.423,3.555 -4.838,5.334 -10.241,5.334 -5.403,0 -8.957,-1.887 -10.662,-5.655 -1.706,-3.766 -2.56,-8.995 -2.56,-15.679 V 33.384 c 0,-6.826 0.884,-12.055 2.664,-15.679 1.779,-3.628 5.298,-5.441 10.558,-5.441 5.26,0 8.64,1.813 10.133,5.441 1.492,3.624 2.239,8.853 2.239,15.679 V 51.511 H 89.694 V 36.582 C 89.694,20.37 85.923,7.75 78.39,-1.28 70.852,-10.311 58.05,-14.824 39.993,-14.824 21.225,-14.824 7.894,-9.886 0,0" /></g><g
           transform="translate(1669.1074,272.3477)"
           id="g256"><path
             id="path258"
             style="fill:#ebab35;fill-opacity:1;fill-rule:nonzero;stroke:none"
             d="m 0,0 c 1.705,3.624 2.561,8.566 2.561,14.824 v 83.185 c 0,6.401 -0.856,11.374 -2.561,14.932 -1.706,3.555 -5.264,5.334 -10.667,5.334 -5.116,0 -8.531,-1.814 -10.237,-5.442 -1.705,-3.623 -2.56,-8.566 -2.56,-14.824 V 14.824 c 0,-6.258 0.78,-11.2 2.348,-14.824 1.561,-3.628 5.047,-5.441 10.449,-5.441 5.403,0 8.961,1.813 10.667,5.441 m -50.552,-18.131 c -7.968,9.6 -11.947,23.781 -11.947,42.554 v 64.204 c 0,18.769 3.979,32.881 11.947,42.337 7.963,9.456 21.255,14.185 39.885,14.185 18.773,0 32.174,-4.764 40.211,-14.29 8.027,-9.529 12.051,-23.606 12.051,-42.232 V 24.423 c 0,-18.773 -4.024,-32.954 -12.051,-42.554 -8.037,-9.598 -21.438,-14.398 -40.211,-14.398 -18.63,0 -31.922,4.8 -39.885,14.398" /></g><path
           id="path260"
           style="fill:#8ab24e;fill-opacity:1;fill-rule:nonzero;stroke:none"
           d="m 1734.157,415.149 h 38.18 V 242.378 h -38.18 z" /><g
           transform="translate(1798.1484,415.1494)"
           id="g262"><path
             id="path264"
             style="fill:#8ab24e;fill-opacity:1;fill-rule:nonzero;stroke:none"
             d="m 0,0 h 26.875 l 35.41,-83.185 V 0 H 93.852 V -172.771 H 68.044 l -35.41,89.586 v -89.586 H 0 Z" /></g></g></g></g></svg>